<svg width="121" height="21" viewBox="0 0 121 21" fill="none" xmlns="http://www.w3.org/2000/svg">
<path d="M9.65861 2.22622C10.0522 1.61345 10.9478 1.61345 11.3414 2.22622L13.6986 5.89613C13.834 6.10697 14.0436 6.25928 14.286 6.32292L18.5047 7.43068C19.2091 7.61564 19.4859 8.46743 19.0247 9.0311L16.2628 12.407C16.1042 12.6009 16.0241 12.8474 16.0385 13.0975L16.2886 17.4521C16.3303 18.1792 15.6058 18.7056 14.9272 18.4412L10.863 16.8577C10.6296 16.7667 10.3704 16.7667 10.137 16.8577L6.07282 18.4412C5.39423 18.7056 4.66966 18.1792 4.71142 17.4521L4.96153 13.0975C4.9759 12.8474 4.89582 12.6009 4.73716 12.407L1.97527 9.0311C1.51412 8.46743 1.79089 7.61564 2.49528 7.43068L6.71399 6.32292C6.95636 6.25928 7.16599 6.10697 7.30141 5.89613L9.65861 2.22622Z" fill="url(#paint0_linear_232_67)"/>
<path d="M34.6586 2.22622C35.0522 1.61345 35.9478 1.61345 36.3414 2.22622L38.6986 5.89613C38.834 6.10697 39.0436 6.25928 39.286 6.32292L43.5047 7.43068C44.2091 7.61564 44.4859 8.46743 44.0247 9.0311L41.2628 12.407C41.1042 12.6009 41.0241 12.8474 41.0385 13.0975L41.2886 17.4521C41.3303 18.1792 40.6058 18.7056 39.9272 18.4412L35.863 16.8577C35.6296 16.7667 35.3704 16.7667 35.137 16.8577L31.0728 18.4412C30.3942 18.7056 29.6697 18.1792 29.7114 17.4521L29.9615 13.0975C29.9759 12.8474 29.8958 12.6009 29.7372 12.407L26.9753 9.0311C26.5141 8.46743 26.7909 7.61564 27.4953 7.43068L31.714 6.32292C31.9564 6.25928 32.166 6.10697 32.3014 5.89613L34.6586 2.22622Z" fill="url(#paint1_linear_232_67)"/>
<path d="M59.6586 2.22622C60.0522 1.61345 60.9478 1.61345 61.3414 2.22622L63.6986 5.89613C63.834 6.10697 64.0436 6.25928 64.286 6.32292L68.5047 7.43068C69.2091 7.61564 69.4859 8.46743 69.0247 9.0311L66.2628 12.407C66.1042 12.6009 66.0241 12.8474 66.0385 13.0975L66.2886 17.4521C66.3303 18.1792 65.6058 18.7056 64.9272 18.4412L60.863 16.8577C60.6296 16.7667 60.3704 16.7667 60.137 16.8577L56.0728 18.4412C55.3942 18.7056 54.6697 18.1792 54.7114 17.4521L54.9615 13.0975C54.9759 12.8474 54.8958 12.6009 54.7372 12.407L51.9753 9.0311C51.5141 8.46743 51.7909 7.61564 52.4953 7.43068L56.714 6.32292C56.9564 6.25928 57.166 6.10697 57.3014 5.89613L59.6586 2.22622Z" fill="url(#paint2_linear_232_67)"/>
<path d="M84.6586 2.22622C85.0522 1.61345 85.9478 1.61345 86.3414 2.22622L88.6986 5.89613C88.834 6.10697 89.0436 6.25928 89.286 6.32292L93.5047 7.43068C94.2091 7.61564 94.4859 8.46743 94.0247 9.0311L91.2628 12.407C91.1042 12.6009 91.0241 12.8474 91.0385 13.0975L91.2886 17.4521C91.3303 18.1792 90.6058 18.7056 89.9272 18.4412L85.863 16.8577C85.6296 16.7667 85.3704 16.7667 85.137 16.8577L81.0728 18.4412C80.3942 18.7056 79.6697 18.1792 79.7114 17.4521L79.9615 13.0975C79.9759 12.8474 79.8958 12.6009 79.7372 12.407L76.9753 9.0311C76.5141 8.46743 76.7909 7.61564 77.4953 7.43068L81.714 6.32292C81.9564 6.25928 82.166 6.10697 82.3014 5.89613L84.6586 2.22622Z" fill="url(#paint3_linear_232_67)"/>
<path d="M109.659 2.22622C110.052 1.61345 110.948 1.61345 111.341 2.22622L113.699 5.89613C113.834 6.10697 114.044 6.25928 114.286 6.32292L118.505 7.43068C119.209 7.61564 119.486 8.46743 119.025 9.0311L116.263 12.407C116.104 12.6009 116.024 12.8474 116.038 13.0975L116.289 17.4521C116.33 18.1792 115.606 18.7056 114.927 18.4412L110.863 16.8577C110.63 16.7667 110.37 16.7667 110.137 16.8577L106.073 18.4412C105.394 18.7056 104.67 18.1792 104.711 17.4521L104.962 13.0975C104.976 12.8474 104.896 12.6009 104.737 12.407L101.975 9.0311C101.514 8.46743 101.791 7.61564 102.495 7.43068L106.714 6.32292C106.956 6.25928 107.166 6.10697 107.301 5.89613L109.659 2.22622Z" fill="url(#paint4_linear_232_67)"/>
<defs>
<linearGradient id="paint0_linear_232_67" x1="10.5" y1="0.91626" x2="10.5" y2="20.9163" gradientUnits="userSpaceOnUse">
<stop stop-color="#FFCE22"/>
<stop offset="1" stop-color="#993C15"/>
</linearGradient>
<linearGradient id="paint1_linear_232_67" x1="35.5" y1="0.91626" x2="35.5" y2="20.9163" gradientUnits="userSpaceOnUse">
<stop stop-color="#FFCE22"/>
<stop offset="1" stop-color="#993C15"/>
</linearGradient>
<linearGradient id="paint2_linear_232_67" x1="60.5" y1="0.91626" x2="60.5" y2="20.9163" gradientUnits="userSpaceOnUse">
<stop stop-color="#FFCE22"/>
<stop offset="1" stop-color="#993C15"/>
</linearGradient>
<linearGradient id="paint3_linear_232_67" x1="85.5" y1="0.91626" x2="85.5" y2="20.9163" gradientUnits="userSpaceOnUse">
<stop stop-color="#FFCE22"/>
<stop offset="1" stop-color="#993C15"/>
</linearGradient>
<linearGradient id="paint4_linear_232_67" x1="110.5" y1="0.91626" x2="110.5" y2="20.9163" gradientUnits="userSpaceOnUse">
<stop stop-color="#FFCE22"/>
<stop offset="1" stop-color="#993C15"/>
</linearGradient>
</defs>
</svg>
