<svg width="120" height="21" viewBox="0 0 120 21" fill="none" xmlns="http://www.w3.org/2000/svg">
<path d="M9.15861 2.22622C9.55219 1.61345 10.4478 1.61345 10.8414 2.22622L13.1986 5.89613C13.334 6.10697 13.5436 6.25928 13.786 6.32292L18.0047 7.43068C18.7091 7.61564 18.9859 8.46743 18.5247 9.0311L15.7628 12.407C15.6042 12.6009 15.5241 12.8474 15.5385 13.0975L15.7886 17.4521C15.8303 18.1792 15.1058 18.7056 14.4272 18.4412L10.363 16.8577C10.1296 16.7667 9.87044 16.7667 9.63696 16.8577L5.57282 18.4412C4.89423 18.7056 4.16966 18.1792 4.21142 17.4521L4.46153 13.0975C4.4759 12.8474 4.39582 12.6009 4.23716 12.407L1.47527 9.0311C1.01412 8.46743 1.29089 7.61564 1.99528 7.43068L6.21399 6.32292C6.45636 6.25928 6.66599 6.10697 6.80141 5.89613L9.15861 2.22622Z" fill="#FFCE22"/>
<path d="M34.1586 2.22622C34.5522 1.61345 35.4478 1.61345 35.8414 2.22622L38.1986 5.89613C38.334 6.10697 38.5436 6.25928 38.786 6.32292L43.0047 7.43068C43.7091 7.61564 43.9859 8.46743 43.5247 9.0311L40.7628 12.407C40.6042 12.6009 40.5241 12.8474 40.5385 13.0975L40.7886 17.4521C40.8303 18.1792 40.1058 18.7056 39.4272 18.4412L35.363 16.8577C35.1296 16.7667 34.8704 16.7667 34.637 16.8577L30.5728 18.4412C29.8942 18.7056 29.1697 18.1792 29.2114 17.4521L29.4615 13.0975C29.4759 12.8474 29.3958 12.6009 29.2372 12.407L26.4753 9.0311C26.0141 8.46743 26.2909 7.61564 26.9953 7.43068L31.214 6.32292C31.4564 6.25928 31.666 6.10697 31.8014 5.89613L34.1586 2.22622Z" fill="#FFCE22"/>
<path d="M59.1586 2.22622C59.5522 1.61345 60.4478 1.61345 60.8414 2.22622L63.1986 5.89613C63.334 6.10697 63.5436 6.25928 63.786 6.32292L68.0047 7.43068C68.7091 7.61564 68.9859 8.46743 68.5247 9.0311L65.7628 12.407C65.6042 12.6009 65.5241 12.8474 65.5385 13.0975L65.7886 17.4521C65.8303 18.1792 65.1058 18.7056 64.4272 18.4412L60.363 16.8577C60.1296 16.7667 59.8704 16.7667 59.637 16.8577L55.5728 18.4412C54.8942 18.7056 54.1697 18.1792 54.2114 17.4521L54.4615 13.0975C54.4759 12.8474 54.3958 12.6009 54.2372 12.407L51.4753 9.0311C51.0141 8.46743 51.2909 7.61564 51.9953 7.43068L56.214 6.32292C56.4564 6.25928 56.666 6.10697 56.8014 5.89613L59.1586 2.22622Z" fill="#FFCE22"/>
<path d="M84.1586 2.22622C84.5522 1.61345 85.4478 1.61345 85.8414 2.22622L88.1986 5.89613C88.334 6.10697 88.5436 6.25928 88.786 6.32292L93.0047 7.43068C93.7091 7.61564 93.9859 8.46743 93.5247 9.0311L90.7628 12.407C90.6042 12.6009 90.5241 12.8474 90.5385 13.0975L90.7886 17.4521C90.8303 18.1792 90.1058 18.7056 89.4272 18.4412L85.363 16.8577C85.1296 16.7667 84.8704 16.7667 84.637 16.8577L80.5728 18.4412C79.8942 18.7056 79.1697 18.1792 79.2114 17.4521L79.4615 13.0975C79.4759 12.8474 79.3958 12.6009 79.2372 12.407L76.4753 9.0311C76.0141 8.46743 76.2909 7.61564 76.9953 7.43068L81.214 6.32292C81.4564 6.25928 81.666 6.10697 81.8014 5.89613L84.1586 2.22622Z" fill="#FFCE22"/>
<path d="M109.159 2.22622C109.552 1.61345 110.448 1.61345 110.841 2.22622L113.199 5.89613C113.334 6.10697 113.544 6.25928 113.786 6.32292L118.005 7.43068C118.709 7.61564 118.986 8.46743 118.525 9.0311L115.763 12.407C115.604 12.6009 115.524 12.8474 115.538 13.0975L115.789 17.4521C115.83 18.1792 115.106 18.7056 114.427 18.4412L110.363 16.8577C110.13 16.7667 109.87 16.7667 109.637 16.8577L105.573 18.4412C104.894 18.7056 104.17 18.1792 104.211 17.4521L104.462 13.0975C104.476 12.8474 104.396 12.6009 104.237 12.407L101.475 9.0311C101.014 8.46743 101.291 7.61564 101.995 7.43068L106.214 6.32292C106.456 6.25928 106.666 6.10697 106.801 5.89613L109.159 2.22622Z" fill="#FFCE22"/>
</svg>
